<?xml version="1.0" encoding="utf-8"?>
<!-- Generator: Adobe Illustrator 22.0.0, SVG Export Plug-In . SVG Version: 6.00 Build 0)  -->
<svg version="1.1" id="Layer_1" xmlns="http://www.w3.org/2000/svg" xmlns:xlink="http://www.w3.org/1999/xlink" x="0px" y="0px"
	 viewBox="0 0 255.1 89.8" style="enable-background:new 0 0 255.1 89.8;" xml:space="preserve">
<style type="text/css">
	.st0{fill:#E5312E;}
	.st1{fill:#707172;}
</style>
<g>
	<polygon class="st0" points="133.8,33.1 123.2,27 112.3,33.1 112.3,54.8 133.8,54.8 	"/>
	<rect x="137.9" class="st0" width="29.3" height="54.8"/>
	<rect x="171.2" y="19.2" class="st0" width="18.5" height="35.6"/>
	<rect x="194.1" y="8.9" class="st0" width="19.1" height="45.9"/>
	<path class="st1" d="M23.8,49.5L38.6,89h-9l-3-8.8H11.8L8.7,89H0l14.9-39.5H23.8z M24.4,73.7l-5-14.5h-0.1l-5.2,14.5H24.4z"/>
	<path class="st1" d="M41.8,89L32,60.4h8.3l6,19.5h0.1l6-19.5h7.8L50.5,89H41.8z"/>
	<path class="st1" d="M68.6,82.2c1.2,1.1,2.9,1.7,5.1,1.7c1.5,0,2.9-0.4,4.1-1.2c1.1-0.8,1.8-1.6,2.1-2.5h6.9
		c-1.1,3.4-2.8,5.9-5.1,7.4c-2.5,1.5-5.4,2.3-8.3,2.2c-2.1,0-4.1-0.3-6.1-1.1C65.6,88,64,87,62.7,85.6s-2.3-3-2.9-4.8
		c-0.7-2-1.1-4-1-6.1c0-2,0.3-4.1,1-6c1.3-3.6,4.1-6.5,7.6-8c1.9-0.8,3.9-1.2,5.9-1.2c2.2-0.1,4.4,0.4,6.4,1.4
		c1.8,0.9,3.3,2.2,4.5,3.8c1.2,1.6,2,3.5,2.5,5.4c0.5,2.1,0.7,4.2,0.6,6.4H66.6C66.7,79.2,67.4,81,68.6,82.2z M77.4,67.1
		c-0.9-1-2.4-1.6-4.3-1.6c-1.1,0-2.2,0.2-3.1,0.6c-0.8,0.4-1.4,0.9-2,1.6c-0.5,0.6-0.8,1.3-1,2c-0.2,0.6-0.3,1.2-0.4,1.9h12.8
		C79,69.6,78.4,68.1,77.4,67.1L77.4,67.1z"/>
	<path class="st1" d="M96.7,49.5V89h-7.9V49.5H96.7z"/>
	<path class="st1" d="M107.6,49.5V89h-7.9V49.5H107.6z"/>
	<path class="st1" d="M111.5,64.6c0.8-1.2,1.9-2.2,3.1-2.9c1.3-0.8,2.7-1.3,4.2-1.6c1.6-0.3,3.1-0.5,4.7-0.5c1.5,0,2.9,0.1,4.4,0.3
		c1.4,0.2,2.8,0.6,4,1.2s2.2,1.4,3,2.5c0.8,1.2,1.2,2.7,1.2,4.2v14.9c0,1.2,0.1,2.5,0.2,3.7c0.1,0.9,0.3,1.8,0.8,2.7h-8
		c-0.1-0.4-0.3-0.9-0.4-1.4c-0.1-0.5-0.2-0.9-0.2-1.4c-1.2,1.3-2.7,2.2-4.4,2.7c-1.7,0.5-3.5,0.8-5.2,0.8c-1.3,0-2.6-0.2-3.8-0.5
		c-1.1-0.3-2.2-0.8-3.1-1.6c-0.9-0.7-1.6-1.6-2.1-2.7c-0.5-1.2-0.8-2.5-0.7-3.8c-0.1-1.4,0.2-2.8,0.9-4c0.5-1,1.3-1.9,2.2-2.5
		c0.9-0.6,2-1.1,3.1-1.4c1.2-0.3,2.4-0.5,3.5-0.7c1.2-0.2,2.3-0.3,3.5-0.4c1-0.1,2-0.3,3-0.5c0.8-0.2,1.5-0.5,2.1-1
		c0.5-0.5,0.8-1.2,0.7-1.9c0-0.7-0.1-1.4-0.4-2c-0.3-0.5-0.6-0.9-1.1-1.2c-0.5-0.3-1-0.5-1.6-0.6s-1.3-0.1-2-0.1
		c-1.3-0.1-2.6,0.3-3.7,1c-0.9,0.7-1.4,1.8-1.6,3.3h-7.9C110.2,67.6,110.7,66,111.5,64.6z M127.1,75.7c-0.5,0.2-1.1,0.3-1.6,0.4
		c-0.6,0.1-1.2,0.2-1.8,0.3c-0.6,0.1-1.3,0.2-1.9,0.3c-0.6,0.1-1.2,0.3-1.7,0.4c-0.5,0.2-1,0.4-1.5,0.7c-0.4,0.3-0.8,0.7-1,1.2
		c-0.3,0.6-0.4,1.2-0.4,1.8c0,0.6,0.1,1.2,0.4,1.8c0.2,0.5,0.6,0.9,1,1.1c0.5,0.3,1,0.5,1.6,0.6s1.2,0.2,1.8,0.2
		c1.2,0.1,2.5-0.2,3.6-0.8c0.8-0.4,1.4-1.1,1.9-1.9c0.4-0.7,0.6-1.4,0.7-2.2c0.1-0.6,0.1-1.2,0.1-1.8v-2.9
		C127.9,75.3,127.5,75.6,127.1,75.7L127.1,75.7z"/>
	<path class="st1" d="M146.4,60.4v4h0.2c0.9-1.6,2.2-2.8,3.9-3.6c1.5-0.7,3.2-1.1,4.9-1.1c1.8-0.1,3.5,0.2,5.2,0.9
		c1.3,0.5,2.3,1.3,3.2,2.4c0.8,1.1,1.4,2.4,1.6,3.7c0.3,1.6,0.5,3.2,0.5,4.8v17.6H158V72.9c0-2.4-0.4-4.1-1.1-5.3
		c-0.7-1.2-2-1.7-3.9-1.7c-2.1,0-3.7,0.6-4.6,1.9c-1,1.3-1.4,3.4-1.4,6.3v15h-7.9V60.4H146.4z"/>
	<path class="st1" d="M176.8,82.2c1.2,1.1,2.9,1.7,5.1,1.7c1.5,0,2.9-0.4,4.1-1.2c1.1-0.8,1.8-1.6,2.1-2.5h6.9
		c-1.1,3.4-2.8,5.9-5.1,7.4c-2.5,1.5-5.4,2.3-8.3,2.2c-2.1,0-4.1-0.3-6.1-1.1c-1.7-0.7-3.3-1.7-4.6-3.1s-2.3-3-2.9-4.8
		c-0.7-2-1.1-4-1-6.1c0-2,0.3-4.1,1-6c1.3-3.6,4.1-6.5,7.7-8c1.9-0.8,3.9-1.2,6-1.2c2.2-0.1,4.4,0.4,6.4,1.4
		c1.8,0.9,3.3,2.2,4.5,3.8c1.2,1.6,2,3.5,2.5,5.4c0.5,2.1,0.7,4.2,0.6,6.4h-20.6C175,79.2,175.6,81,176.8,82.2z M185.7,67.1
		c-0.9-1-2.4-1.6-4.3-1.6c-1.1,0-2.2,0.2-3.1,0.6c-0.8,0.4-1.4,0.9-2,1.6c-0.5,0.6-0.8,1.3-1,2c-0.2,0.6-0.3,1.2-0.4,1.9h12.8
		C187.3,69.6,186.7,68.1,185.7,67.1L185.7,67.1z"/>
	<path class="st1" d="M218.3,85.4c-0.8,1.5-2.1,2.6-3.6,3.3c-1.6,0.7-3.3,1.1-5.1,1c-2,0-3.9-0.4-5.6-1.2c-1.6-0.8-3-2-4-3.4
		c-1.1-1.5-1.9-3.1-2.4-4.9c-0.5-1.9-0.8-3.8-0.8-5.7c0-1.9,0.3-3.8,0.8-5.6c0.5-1.7,1.3-3.3,2.4-4.7c2.3-2.9,5.8-4.6,9.5-4.5
		c1.7,0,3.3,0.4,4.8,1.1s2.7,1.8,3.6,3.2h0.1V49.5h7.9V89h-7.5L218.3,85.4L218.3,85.4z M217.9,71.2c-0.2-1-0.6-2-1.1-2.9
		c-0.5-0.8-1.2-1.5-2.1-2c-1-0.5-2.1-0.8-3.2-0.8c-1.1,0-2.2,0.2-3.2,0.8c-0.9,0.5-1.6,1.2-2.1,2c-0.6,0.9-0.9,1.9-1.2,2.9
		c-0.2,1.1-0.4,2.3-0.4,3.4s0.1,2.2,0.4,3.3c0.2,1.1,0.7,2.1,1.2,3c0.6,0.8,1.3,1.6,2.2,2.1c0.9,0.6,2,0.8,3.1,0.8s2.2-0.2,3.2-0.8
		c0.9-0.5,1.6-1.2,2.1-2.1s0.9-1.9,1.1-3c0.2-1.1,0.3-2.3,0.3-3.4C218.3,73.5,218.2,72.3,217.9,71.2L217.9,71.2z"/>
	<path class="st1" d="M229.5,64.6c0.8-1.2,1.9-2.2,3.1-2.9c1.3-0.8,2.7-1.3,4.2-1.6c1.6-0.3,3.1-0.5,4.7-0.5c1.5,0,2.9,0.1,4.4,0.3
		c1.4,0.2,2.8,0.6,4,1.2s2.2,1.4,3,2.5c0.8,1.2,1.2,2.7,1.2,4.2v14.9c0,1.2,0.1,2.5,0.2,3.7c0.1,0.9,0.3,1.8,0.8,2.7h-8
		c-0.1-0.4-0.3-0.9-0.4-1.4c-0.1-0.5-0.2-0.9-0.2-1.4c-1.2,1.3-2.7,2.2-4.4,2.7s-3.5,0.8-5.2,0.8c-1.3,0-2.6-0.2-3.8-0.5
		c-1.1-0.3-2.2-0.8-3.1-1.6c-0.9-0.7-1.6-1.6-2.1-2.7c-0.5-1.2-0.8-2.5-0.7-3.8c-0.1-1.4,0.2-2.8,0.9-4c0.5-1,1.3-1.9,2.2-2.5
		s2-1.1,3.1-1.4c1.2-0.3,2.3-0.6,3.5-0.7c1.2-0.2,2.3-0.3,3.5-0.4c1-0.1,2-0.3,3-0.5c0.8-0.2,1.5-0.5,2.1-1c0.5-0.5,0.8-1.2,0.7-1.9
		c0-0.7-0.1-1.4-0.4-2c-0.3-0.5-0.6-0.9-1.1-1.2c-0.5-0.3-1-0.5-1.6-0.6s-1.3-0.1-2-0.1c-1.3-0.1-2.6,0.3-3.7,1
		c-0.9,0.7-1.4,1.8-1.6,3.3H228C228.2,67.5,228.6,66,229.5,64.6z M245,75.7c-0.5,0.2-1.1,0.3-1.6,0.4c-0.6,0.1-1.2,0.2-1.8,0.3
		c-0.6,0.1-1.3,0.2-1.9,0.3c-0.6,0.1-1.2,0.3-1.7,0.4c-0.5,0.2-1,0.4-1.5,0.7c-0.4,0.3-0.8,0.7-1,1.2c-0.3,0.6-0.4,1.2-0.4,1.8
		c0,0.6,0.1,1.2,0.4,1.8c0.2,0.5,0.6,0.9,1,1.1c0.5,0.3,1,0.5,1.6,0.6s1.2,0.2,1.8,0.2c1.2,0.1,2.5-0.2,3.6-0.8
		c0.8-0.4,1.4-1.1,1.9-1.9c0.4-0.7,0.6-1.4,0.7-2.2c0.1-0.6,0.1-1.2,0.1-1.8v-2.9C245.9,75.3,245.5,75.6,245,75.7z"/>
	<g>
		<g>
			<path class="st0" d="M76.9,47.9c-0.3,0-0.6,0.1-0.8,0.2c-2.6,1.5-5.3,2.3-7.8,2.3c-0.4,0-0.7,0-1.1,0c-4.9-0.6-7.5-4.7-7.5-9.9
				c0-1.1,0.1-2.2,0.3-3.3c-1.2-1.4-2.9-3.1-2.9-3.1c-0.5,2.1-0.8,4.2-0.8,6.2c0,5.6,2.1,12,9.9,13.5c0.6,0.1,1.4,0.1,2.1,0.1
				c3.3,0,6.8-1.5,9.4-3C79.2,50.1,78.6,47.9,76.9,47.9z M62.2,29.8c1.2-2.8,2.8-5.4,4.5-7.5c1.5-1.9,4.2-4.4,6.3-5.9
				c2.4-1.6,5.3-2.5,8.2-2.5c3.8,0,7.5,1.4,8.7,5.1c0.5,1.5,0.8,3,0.8,4.6c0,3-0.6,6-1.7,8.9c-0.4,1.1,0.4,2.2,1.5,2.2h0.1
				c0.7,0,1.3-0.4,1.5-1.1c1.2-3.3,1.9-6.7,1.9-10.2c0-6.5-3.1-12.9-12.8-12.9c-3.6,0-8,1.8-10.6,3.6c-4.6,3-8.6,8-11.2,13.4
				C59.5,27.5,61.2,28.6,62.2,29.8z M51.8,48.8c-3.2,1.5-6.9,2.3-10.4,2.3c-3.4,0-6.7-1-8.6-3.5c-0.5-0.7-0.8-1.4-0.8-2.3
				c0-0.4,0.2-0.8,0.2-1.2c0-0.8-0.4-1.6-1.7-1.6c-1.9,0-1.9,1.8-1.9,2.7c0,3.1,2.4,5.8,4.9,7.3c2.2,1.3,5.3,1.9,7.9,1.9
				c3.9,0,8.2-1,12-2.7c1.3-0.6,2.7-1.3,3.9-2.1c-0.9-0.8-1.6-3-1.6-3C54.3,47.5,53,48.2,51.8,48.8z M41.9,20.3
				c1.2,0,1.8-0.6,1.7-1.6c0,0-0.1-0.4-0.1-0.6c0.2-0.6,2.2-1.7,3.6-2.2c2.1-0.8,4.5-1.3,6.9-1.3c2.3,0,6.3,0.5,6.3,2.4
				c0,1.7-3.9,4.4-5.6,5.3c-2.3,1.3-4.8,2.6-6.1,3.3c-0.5,0.2-0.9,0.8-0.9,1.4c0,1,0.4,1.6,1.5,1.8c2.1,0.3,4.1,1.2,5.8,2.1
				c3.4,1.8,6.5,4.4,6.5,7.7c0,0.8-0.2,1.6-0.5,2.3c0,0,0.3,3.3,1.3,4.4c1.6-2,2.6-4.2,2.6-6.7c0-6.2-5.9-10-10.9-11.9
				c2.1-1.2,4-2.4,5.9-3.9c1.7-1.3,3.8-3.4,3.8-5.9c0-5.2-7.2-5.7-9.8-5.7c-4.2,0-9.4,1.5-12.2,3.9c-0.8,0.7-1.5,1.8-1.5,3
				C40.2,19.1,40.3,20.3,41.9,20.3z M74.8,44.9c0,0.4,0.3,0.6,0.6,0.6c0.5,0,0.6-0.5,0.6-0.8c0-0.4,0.3-1.6,0.5-2.2
				c0.2-0.9,0.5-1.7,0.8-2.6c0-0.1,0.1-0.3,0.1-0.4c0-0.2-0.2-0.4-0.4-0.5c0.1-0.1,0.2-0.3,0.2-0.5c0-0.3-0.1-0.4-0.2-0.5
				c-0.4-0.4-1-0.6-1.4-0.6c-1.1,0-2.2,0.8-3.1,1.4c-1.5,1.1-3.4,3.1-3.4,4.9c0,0.8,0.6,1.5,1.4,1.5c0.9,0,1.9-0.6,2.6-1.1
				c0.7-0.6,1.5-1.3,2.2-2c-0.3,0.8-0.3,1-0.4,1.7C74.8,44.2,74.8,44.7,74.8,44.9z M73.1,42.8c-0.6,0.5-1.5,1.3-2.4,1.4
				c-0.4,0-0.5-0.2-0.5-0.3c0-1.3,2-3.3,3-4c0.7-0.5,1.6-1.1,2.5-1.1c0.1,0,0.3,0.1,0.4,0.1c0.1,0.2,0.2,0.3,0.4,0.4
				c0,0-0.1,0.1-0.1,0.2c-0.3,0.4-0.6,0.7-0.9,1.1C74.7,41.2,73.9,42.1,73.1,42.8z M86.1,34.3l-0.4,0.3c-0.4,0.3-1.2,0.7-1.7,0.7
				c-0.3,0-0.5-0.2-0.7-0.5c-0.3-0.3-0.6-0.7-1.4-0.7c-0.8,0-1.6,0.4-2.1,0.7c-0.3,0.2-0.8,0.6-0.8,0.7c-0.2,0.2,0.3,1.3,1.1,0.6
				c0.4-0.4,1.3-1,1.8-1c0.1,0,0.3,0.2,0.6,0.5c0.3,0.3,0.8,0.7,1.6,0.7c0.8,0,1.8-0.5,2.3-0.8C88,34.5,86.8,33.8,86.1,34.3z
				 M84.1,37.4c-1.3,0-2.8,1.5-3.6,2.5c-0.3,0.4-0.6,0.7-0.9,1.1c0.3-0.9,0.4-1.1,0.6-1.7c0.1-0.2,0.3-0.6,0.3-0.9s-0.1-0.6-0.6-0.6
				c-0.2,0-0.4,0.1-0.5,0.3c-0.1,0.2-0.2,0.5-0.3,0.8c-0.6,1.4-1.2,3.2-1.7,4.6c-0.2,0.5-0.3,1.1-0.3,1.2c0,0.3,0.3,0.6,0.6,0.6
				c0.4,0,0.5-0.2,0.6-0.5c0.2-0.5,0.6-1,0.9-1.5c0.6-1,1.3-1.9,2.1-2.8c0.5-0.5,1-1.1,1.6-1.5c0.5-0.4,0.9-0.6,1.3-0.6
				c0.1,0,0.1,0,0.1,0.1c0,0.3-0.1,0.8-0.2,1.3c-0.4,1.4-0.8,2.7-0.9,4.2c0,0.2,0,0.3,0,0.5c0,0.5,0.1,1.1,0.7,1.1
				c0.3,0,0.6-0.3,0.6-0.6c0-0.2-0.1-0.3-0.1-0.4c0-0.5,0.1-0.9,0.1-1.3c0.2-1.2,0.6-2.5,0.9-3.6c0.1-0.2,0.2-0.8,0.2-1.1
				C85.4,37.9,84.9,37.4,84.1,37.4z M91.5,37.5c-2,0-3.8,1.7-4.8,3.2c-0.5,0.7-0.9,1.6-0.9,2.5c0,1.1,0.7,2.1,2.1,2.1
				c1.2,0,2.2-0.7,3.1-1.4c1.3-1,2.5-2.7,2.5-4.3C93.5,38.4,92.8,37.5,91.5,37.5z M90.3,43c-0.7,0.5-1.7,1.2-2.5,1.2
				c-0.5,0-0.9-0.5-0.9-0.9c0-1.4,1.3-2.8,2-3.4c0.7-0.6,1.7-1.2,2.6-1.2c0.5,0,0.9,0.3,0.9,0.9C92.4,40.8,91.2,42.3,90.3,43z
				 M98.8,37.5c-0.6,0-1,0.1-1.5,0.2c-0.9,0.2-2.4,0.8-2.4,2c0,0.5,0.3,0.9,0.7,1.3c0.6,0.5,0.9,0.7,1.4,1.2
				c0.3,0.2,0.5,0.5,0.5,0.8c0,0.6-1.1,0.9-1.9,1.1c-0.7,0.1-1.3,0.2-2,0.2c-0.4,0-0.8-0.1-1.1-0.1c-0.4-0.1-0.7,0.2-0.7,0.6
				c0,0.7,1.2,0.8,1.7,0.8c1.8,0,5.2-0.7,5.2-2.6c0-0.5-0.3-1-0.7-1.4c-0.6-0.5-0.9-0.8-1.5-1.2c-0.2-0.2-0.4-0.4-0.4-0.5
				c0-0.5,1.1-0.8,2-1c0.2,0,0.3,0,0.8,0c0.3,0,0.9,0,0.9-0.7C99.7,37.5,99.2,37.5,98.8,37.5z"/>
		</g>
	</g>
</g>
</svg>
